<svg width="151" height="151" viewBox="0 0 151 151" fill="none" xmlns="http://www.w3.org/2000/svg">
<path d="M80.146 94.4167C92.4713 93.7915 103.763 93.5083 105.584 94.529C106.521 95.0562 107.98 101.986 108.651 106.621C112.437 106.169 117.194 105.753 121.947 105.429C121.241 101.863 120.806 99.6292 119.205 96.1838C118.962 95.6618 119.626 95.4509 119.897 95.9277C121.501 98.8652 122.579 102.061 123.081 105.37C129.516 104.948 135.865 104.692 139.844 104.692C139.392 100.798 136.889 91.8241 132.402 87.2225C128.943 83.6755 122.233 80.5187 116.295 79.7715C116.202 80.5945 115.885 81.3761 115.377 82.0305C114.87 82.685 114.192 83.1869 113.417 83.4812C110.245 84.7278 104.454 85.0555 99.2881 82.218C93.8384 83.7727 83.8512 89.7037 80.146 94.4167Z" fill="#38A1FF"/>
<path d="M146.58 122.136C114.083 122.747 81.733 122.626 49.2533 122.663C48.5965 122.663 48.4481 123.69 49.1275 123.702C81.5342 124.301 114.327 123.596 146.729 123.199C147.421 123.193 147.269 122.123 146.58 122.136Z" fill="#38A1FF"/>
<path d="M66.5664 57.9272C69.9025 57.9898 86.1612 57.687 87.8899 57.6124C88.4112 57.5898 88.3976 56.6904 87.8899 56.6904C85.5692 56.6904 70.301 56.9849 66.5664 57.1808C66.4761 57.193 66.3933 57.2375 66.3333 57.3062C66.2733 57.3748 66.2402 57.4629 66.2402 57.554C66.2402 57.6452 66.2733 57.7332 66.3333 57.8019C66.3933 57.8705 66.4761 57.915 66.5664 57.9272Z" fill="#38A1FF"/>
<path d="M53.2487 53.7626C53.0062 53.8892 48.8114 58.9314 50.7442 58.3318C51.0184 58.2467 53.7572 54.7765 53.892 54.1543C53.9082 54.0737 53.8992 53.99 53.8662 53.9147C53.8331 53.8394 53.7778 53.776 53.7075 53.7333C53.6373 53.6905 53.5556 53.6704 53.4735 53.6756C53.3914 53.6809 53.313 53.7113 53.2487 53.7626Z" fill="#38A1FF"/>
<path d="M44.1083 42.3074C45.4573 42.3707 72.9272 42.3021 74.5648 42.1409C74.7973 42.1101 75.0102 41.994 75.162 41.8152C75.3139 41.6364 75.394 41.4076 75.3867 41.1732C75.3795 40.9387 75.2855 40.7152 75.1229 40.5461C74.9604 40.377 74.7408 40.2743 74.5068 40.2578C66.8622 40.3527 50.9703 40.3919 44.1512 40.541C43.1283 40.5644 43.0424 42.2592 44.1083 42.3074Z" fill="#38A1FF"/>
<path d="M82.5608 71.2945C80.7929 71.2945 67.3514 71.1439 66.3993 71.4158C66.0754 71.5092 65.9473 72.0335 66.336 72.1442C67.3514 72.4357 80.7229 72.2881 82.5691 72.2881C84.4153 72.2881 86.2072 72.3544 88.015 72.2881C88.5679 72.2677 88.5272 71.3412 87.9789 71.3171C86.1801 71.2373 84.3633 71.2945 82.5608 71.2945Z" fill="#38A1FF"/>
<path d="M66.188 78.3334C66.0738 78.3673 65.9777 78.4449 65.9205 78.5493C65.8632 78.6536 65.8494 78.7764 65.8821 78.8908C66.0373 79.4181 65.3406 79.2373 88.2489 79.6192C88.3753 79.6063 88.4924 79.547 88.5776 79.4527C88.6627 79.3585 88.7099 79.2359 88.7099 79.1089C88.7099 78.9818 88.6627 78.8593 88.5776 78.765C88.4924 78.6707 88.3753 78.6114 88.2489 78.5986C66.2723 78.2438 67.6364 78.2212 66.188 78.3334Z" fill="#38A1FF"/>
<path d="M87.7589 65.2738C87.8815 65.2655 87.9966 65.212 88.0819 65.1236C88.1672 65.0352 88.2165 64.9183 88.2204 64.7955C88.2242 64.6727 88.1823 64.5529 88.1027 64.4594C88.0231 64.3658 87.9116 64.3052 87.7898 64.2893C84.5207 64.1989 69.3083 64.0723 66.5484 64.6222C66.0965 64.7119 66.1974 65.3702 66.629 65.4086C68.9633 65.6188 72.5321 64.8346 87.7589 65.2738Z" fill="#38A1FF"/>
<path d="M107.851 51.8915C107.891 45.4031 108.193 37.3087 107.648 31.0132C107.633 30.9186 107.584 30.833 107.509 30.7728C107.435 30.7125 107.341 30.682 107.245 30.6871C107.15 30.6921 107.059 30.7324 106.992 30.8001C106.924 30.8679 106.884 30.9582 106.879 31.0538C106.702 34.0743 106.868 48.1087 106.879 51.9638C106.88 52.5973 107.847 52.5257 107.851 51.8915Z" fill="#38A1FF"/>
<path d="M51.007 81.9519C51.9405 82.9744 52.9329 83.9415 53.9793 84.8481C54.4313 85.2737 55.1273 84.595 54.6723 84.1702C53.697 83.189 52.6717 82.2588 51.6006 81.3832C51.2744 81.1745 50.7555 81.6016 51.007 81.9519Z" fill="#38A1FF"/>
<path d="M9.25927 31.0139C9.25927 30.4475 8.36744 30.3443 8.35991 30.9243C8.06313 54.9195 8.45933 82.8293 9.60577 106.7C9.6374 107.362 10.6603 107.2 10.6264 106.543C9.4152 81.2919 9.22463 56.2859 9.25927 31.0139Z" fill="#38A1FF"/>
<path d="M20.5901 84.556C20.337 84.9326 20.9238 85.4117 21.2198 85.0599C21.6017 84.608 23.8163 82.0417 23.7055 81.4896C23.4005 80.0268 21.0225 83.9165 20.5901 84.556Z" fill="#38A1FF"/>
<path d="M37.1624 72.3846C36.776 72.313 34.325 74.4884 33.8301 74.9607C29.2029 71.9349 29.6632 72.6798 29.7204 74.5087C29.7378 75.7597 29.8249 77.0087 29.981 78.2501C30.0375 78.6425 30.6341 78.574 30.659 78.1921C30.7531 76.7933 30.5731 75.399 30.5505 74.001C34.6248 76.4867 33.3654 76.4114 37.17 73.2945C37.6219 73.7939 39.7739 75.8879 40.4255 75.8088C40.9527 75.7433 42.7281 73.3578 43.1507 72.8493C43.1507 73.9287 43.1854 77.0095 43.5055 77.8817C43.6712 78.3337 44.1081 78.174 44.1307 77.7243C44.1864 76.7662 44.0704 74.4952 44.0727 73.3894C44.0727 72.13 44.0689 71.8076 43.5416 71.0544C42.3967 69.4183 39.4967 65.4103 37.7274 63.235C36.1689 61.318 36.1004 61.2765 35.0067 62.9698C33.3217 65.5828 30.4932 70.6529 30.0609 71.617C29.8779 72.023 30.5038 72.2143 30.7215 71.9138C31.4461 70.9127 33.0867 67.9698 33.8422 66.675C35.5407 66.7428 37.2418 66.7142 38.9371 66.5891C40.3358 68.2463 41.6578 69.9576 42.9293 71.7112L40.3351 74.859C39.9818 74.5788 37.5534 72.4569 37.1624 72.3846Z" fill="#38A1FF"/>
<path d="M50.1382 106.108C46.0911 105.882 13.1345 106.059 11.8487 106.258C11.7537 106.289 11.6714 106.35 11.6149 106.433C11.5584 106.515 11.5308 106.614 11.5364 106.714C11.5419 106.813 11.5804 106.909 11.6458 106.984C11.7112 107.06 11.7998 107.111 11.8977 107.131C24.3586 107.167 37.5832 107.068 50.0659 107.082C50.673 107.082 50.777 106.145 50.1382 106.108Z" fill="#38A1FF"/>
<path d="M22.1786 59.469C22.6246 59.9668 23.3085 59.3432 22.9379 58.9206C22.0385 57.9 20.1118 55.5822 19.2237 54.8019C18.8719 54.4923 18.3951 54.9766 18.6437 55.3457C19.2824 56.2986 21.2981 58.4867 22.1786 59.469Z" fill="#38A1FF"/>
<path d="M36.6774 55.0364C36.7339 53.0814 36.6183 51.1252 36.3317 49.1905C36.292 49.1209 36.233 49.0643 36.1618 49.0276C36.0906 48.9908 36.0103 48.9755 35.9306 48.9835C35.8509 48.9915 35.7752 49.0224 35.7127 49.0725C35.6502 49.1226 35.6036 49.1897 35.5785 49.2658C35.5175 51.2186 35.6122 53.1732 35.8617 55.1109C35.8844 55.2081 35.9415 55.2938 36.0224 55.3522C36.1033 55.4106 36.2026 55.4378 36.302 55.4287C36.4014 55.4196 36.4942 55.3749 36.5632 55.3028C36.6321 55.2307 36.6727 55.1361 36.6774 55.0364Z" fill="#38A1FF"/>
<path d="M37.3372 84.2011C37.3372 84.8263 37.1708 88.9766 37.3952 89.5212C37.4349 89.5899 37.4919 89.6469 37.5606 89.6865C37.6293 89.7262 37.7072 89.747 37.7865 89.747C37.8658 89.747 37.9437 89.7262 38.0124 89.6865C38.0811 89.6469 38.1382 89.5899 38.1778 89.5212C38.4121 88.9231 38.1462 85.0244 38.1153 84.2011C38.0746 83.7604 37.3372 83.7514 37.3372 84.2011Z" fill="#38A1FF"/>
<path d="M18.4904 70.5846C27.6386 53.3798 48.4913 55.1876 56.16 69.1903C47.1 83.0176 29.3507 85.1108 18.449 71.8161C18.1086 71.4019 17.6875 71.9314 17.9971 72.3653C27.5813 85.6976 48.0597 83.9576 56.5155 70.4822C56.791 70.1397 56.9518 69.7192 56.9752 69.2803C56.9986 68.8414 56.8834 68.4062 56.6459 68.0364C47.3471 52.1114 24.0584 54.9759 17.8607 70.1771C17.6762 70.629 18.2697 71.0004 18.4904 70.5846Z" fill="#38A1FF"/>
<path fill-rule="evenodd" clip-rule="evenodd" d="M101.873 53.1103C99.5171 53.5622 97.4389 58.7091 100.038 61.1187C101.63 62.5943 108.96 62.6568 113.403 62.4678C113.435 63.0116 113.552 63.5471 113.749 64.0549C113.926 64.5068 114.456 64.6499 114.324 63.8349C114.252 63.3707 114.219 62.9013 114.226 62.4316C115.125 62.3872 115.835 62.333 116.294 62.281C116.174 63.2846 116.002 64.2813 115.777 65.2668C115.653 65.8069 116.259 65.9078 116.465 65.3926C117.096 63.7631 117.351 62.0123 117.211 60.2706C116.943 56.4313 106.177 52.2832 101.873 53.1103ZM102.615 55.138C101.531 55.3858 101.275 57.0324 101.176 57.9129C101.007 59.4194 100.047 58.3649 100.277 57.0399C100.453 56.0411 101.307 54.4141 102.552 54.5761C102.624 54.5722 102.695 54.5961 102.75 54.6427C102.805 54.6894 102.84 54.7554 102.849 54.8272C102.857 54.899 102.837 54.9712 102.794 55.0289C102.75 55.0867 102.686 55.1257 102.615 55.138Z" fill="#191919"/>
<path fill-rule="evenodd" clip-rule="evenodd" d="M110.683 68.6108C111.284 67.594 111.697 66.4775 111.902 65.3147C112.914 65.4979 113.879 65.8821 114.74 66.4445C115.252 66.6652 115.446 65.9926 115.192 65.7839C114.267 65.0305 113.137 64.573 111.949 64.471C111.401 63.4323 107.232 63.1905 106.589 64.2865C106.431 64.1981 106.257 64.1441 106.077 64.1279C105.897 64.1116 105.716 64.1336 105.546 64.1923C105.218 63.293 101.521 63.0677 100.6 64.1065C99.5385 63.9897 99.0978 64.9697 100.5 64.9606C100.552 65.9341 100.732 66.8965 101.036 67.8229C101.399 68.5656 104.01 68.5543 104.529 68.1785C105.148 67.7318 105.429 65.7817 105.604 65.0307C105.859 64.9507 106.134 64.9668 106.378 65.0759C106.372 66.0827 106.487 67.0866 106.719 68.0663C107.118 68.8602 110.104 69.2948 110.683 68.6108ZM104.244 67.3153C104.121 67.6113 104.01 67.6821 103.021 67.6429C101.349 67.5774 101.699 67.9397 101.187 64.572C102.364 64.172 103.642 64.172 104.819 64.572C104.803 65.5146 104.608 66.4456 104.244 67.3153ZM107.392 67.6565C107.205 66.7306 107.139 65.7845 107.194 64.8416C108.485 64.3805 109.904 64.4238 111.165 64.9629C111.094 65.7036 110.904 66.4281 110.602 67.1081C110.174 68.0444 110.103 68.1672 108.754 68.0572C108.107 68.0045 107.483 67.8606 107.392 67.6572V67.6565Z" fill="#191919"/>
<path fill-rule="evenodd" clip-rule="evenodd" d="M108.031 67.0542C108.172 67.5619 109.161 67.6214 108.93 66.1549C108.798 65.3203 107.622 65.5824 108.031 67.0542Z" fill="#191919"/>
<path fill-rule="evenodd" clip-rule="evenodd" d="M116.573 66.4469C113.992 66.6631 112.718 71.3904 111.347 71.8431C110.389 72.1602 108.24 70.7818 106.069 70.6334C103.897 70.485 102.66 71.4025 102.255 71.2089C101.85 71.0153 102.129 69.3205 102.129 68.9251C102.129 68.5296 101.914 68.3134 101.531 69.1857C101.149 70.0579 97.417 78.431 99.0402 80.6839C101.36 83.9032 110.828 84.5849 113.767 82.3704C117.452 79.594 114.316 70.6771 115.224 68.3541C115.394 68.022 115.666 67.7531 116.001 67.5865C116.335 67.4199 116.713 67.3642 117.081 67.4276C118.322 67.9654 117.981 71.6458 115.997 71.0695C115.499 70.9257 115.386 71.5524 115.847 71.7941C117.194 72.5029 118.517 71.3979 118.693 69.5457C118.825 68.1432 118.349 66.2985 116.573 66.4469ZM106.298 74.8079C104.427 74.8079 104.049 74.0659 103.892 72.8494C105.511 73.1974 107.188 73.1683 108.794 72.7643C108.623 73.8761 108.386 74.8109 106.298 74.8109V74.8079Z" fill="#191919"/>
<path fill-rule="evenodd" clip-rule="evenodd" d="M105.404 66.9063C105.058 67.7047 104.798 68.5381 104.63 69.392C104.444 70.4051 105.792 70.4081 106.551 70.2913C107.003 70.222 107.086 69.7068 106.591 69.6707C106.227 69.6436 105.512 69.6255 105.444 69.4997C105.507 68.6593 105.668 67.8292 105.926 67.0268C106.031 66.6954 105.547 66.5658 105.404 66.9063Z" fill="#191919"/>
<path fill-rule="evenodd" clip-rule="evenodd" d="M103.263 67.0881C103.682 66.9284 103.715 65.8008 103.357 65.5906C102.454 65.0543 102.328 67.4406 103.263 67.0881Z" fill="#191919"/>
<path fill-rule="evenodd" clip-rule="evenodd" d="M110.633 27.416C75.7974 27.4431 38.8163 27.3625 4.51069 27.6548C3.92618 27.6593 3.91262 29.1613 4.47454 29.165C39.2027 29.3827 75.7793 29.1116 110.597 29.0844C111.222 29.0837 111.236 27.416 110.633 27.416Z" fill="#191919"/>
<path fill-rule="evenodd" clip-rule="evenodd" d="M70.9452 107.602C64.9946 107.248 55.7772 106.083 50.2243 103.699C49.5102 103.392 45.9828 103.968 41.9778 102.117C41.559 101.924 41.3926 102.514 41.7842 102.756C43.8308 104.017 46.4159 104.353 48.7766 104.429C49.4111 104.413 50.0398 104.553 50.607 104.838C57.1496 107.184 64.0399 108.415 70.9904 108.48C71.5613 108.488 71.5433 107.638 70.9452 107.602Z" fill="#191919"/>
<path fill-rule="evenodd" clip-rule="evenodd" d="M138.599 105.892C138.483 105.258 137.628 105.482 137.735 106.112C138.103 108.375 137.957 110.692 137.308 112.891C135.77 118.249 131.246 117.39 126.718 117.181C121.965 116.963 115.419 116.507 111.313 116.318C111.222 116.306 111.13 116.33 111.057 116.384C110.983 116.439 110.934 116.52 110.92 116.61C110.905 116.701 110.927 116.793 110.98 116.868C111.032 116.943 111.112 116.994 111.202 117.011C115.153 117.638 123.592 118.01 126.88 118.166C131.377 118.379 136.393 118.979 138.068 113.773C138.892 111.23 139.074 108.523 138.599 105.892Z" fill="#191919"/>
<path fill-rule="evenodd" clip-rule="evenodd" d="M109.123 108.577C114.942 107.652 120.805 107.02 126.688 106.684C126.783 106.676 126.871 106.631 126.934 106.559C126.996 106.487 127.029 106.393 127.024 106.298C127.019 106.203 126.978 106.113 126.909 106.047C126.839 105.982 126.747 105.946 126.652 105.946C120.728 106.189 114.825 106.79 108.975 107.745C108.864 107.765 108.766 107.828 108.702 107.92C108.638 108.012 108.614 108.126 108.634 108.237C108.654 108.347 108.717 108.445 108.809 108.509C108.901 108.573 109.015 108.597 109.125 108.577H109.123Z" fill="#191919"/>
<path fill-rule="evenodd" clip-rule="evenodd" d="M47.1674 102.062C47.23 102.062 47.292 102.049 47.3495 102.024C47.4069 101.999 47.4588 101.963 47.502 101.917C47.5452 101.872 47.5787 101.818 47.6007 101.76C47.6227 101.701 47.6326 101.638 47.6298 101.576C47.6271 101.513 47.6118 101.452 47.5848 101.395C47.5578 101.339 47.5197 101.288 47.4727 101.247C47.4257 101.205 47.3709 101.174 47.3114 101.154C47.252 101.134 47.1892 101.126 47.1267 101.131C44.3307 101.221 42.9199 100.427 41.0744 99.1164C40.7822 98.9093 40.4718 99.2746 40.6978 99.5684C42.0115 101.305 45.0764 102.144 47.1674 102.062Z" fill="#191919"/>
<path fill-rule="evenodd" clip-rule="evenodd" d="M51.8189 97.2938C52.1593 97.8843 52.8734 97.9642 53.5091 98.1081C57.264 98.9615 65.8563 98.6767 69.8417 98.63C70.4081 98.6233 70.2936 97.8911 69.7113 97.8964C66.8016 97.9258 58.0195 98.0086 53.662 97.2042C52.8576 97.0535 52.899 97.1725 52.4885 96.5262C51.7127 95.3015 50.5557 93.8033 49.1524 93.7784C48.7336 93.7709 48.7004 94.1746 49.0575 94.3539C50.2972 94.9758 51.2758 96.0176 51.8189 97.2938Z" fill="#191919"/>
<path fill-rule="evenodd" clip-rule="evenodd" d="M49.333 97.4619C47.3881 96.891 44.6396 95.975 43.1278 94.0219C42.6759 93.4359 42.2917 93.8916 42.5162 94.3639C43.4577 96.3464 46.9046 98.1301 48.8833 98.2054C49.9778 98.2513 49.6735 97.5614 49.333 97.4619Z" fill="#191919"/>
<path fill-rule="evenodd" clip-rule="evenodd" d="M41.4556 95.9239C41.3935 95.8483 41.3048 95.7994 41.2077 95.7872C41.1106 95.775 41.0126 95.8004 40.9337 95.8583C40.8548 95.9161 40.8011 96.002 40.7835 96.0983C40.766 96.1945 40.786 96.2939 40.8394 96.3758C41.5574 97.4059 42.4899 98.2684 43.5727 98.904C44.6555 99.5397 45.863 99.9335 47.1124 100.058C47.2109 100.062 47.3077 100.033 47.3882 99.9764C47.4688 99.9197 47.5286 99.8383 47.5586 99.7445C47.5886 99.6507 47.5872 99.5497 47.5545 99.4568C47.5218 99.3639 47.4597 99.2842 47.3776 99.2298C46.717 98.9451 43.9089 98.7621 41.4556 95.9239Z" fill="#191919"/>
<path fill-rule="evenodd" clip-rule="evenodd" d="M128.17 118.969C126.821 118.793 111.172 119.14 110.448 118.843C109.723 118.546 105.975 97.2002 104.996 95.7976C104.017 94.3951 73.1722 95.2847 71.7697 96.0944C70.3671 96.9041 74.9988 121.287 76.1987 121.78C77.2691 122.219 126.562 121.609 128.172 121.524C129.783 121.439 129.519 119.144 128.17 118.969ZM89.3089 111.954C85.1005 112.304 83.7816 105.401 87.9869 104.714C89.983 104.388 91.7418 106.158 92.1147 108.338C92.1922 108.763 92.1793 109.2 92.0768 109.619C91.9742 110.039 91.7844 110.432 91.5196 110.773C91.2548 111.114 90.9211 111.396 90.5402 111.599C90.1592 111.803 89.7397 111.924 89.3089 111.954Z" fill="#191919"/>
</svg>
