<svg width="152" height="151" viewBox="0 0 152 151" fill="none" xmlns="http://www.w3.org/2000/svg">
<path fill-rule="evenodd" clip-rule="evenodd" d="M96.5627 75.4658H69.2487C64.556 75.4658 63.8502 81.2274 68.8796 81.2974C73.909 81.3675 95.7823 81.543 96.5627 81.543C97.0493 81.543 96.8677 75.4658 96.5627 75.4658Z" fill="#38A1FF"/>
<path fill-rule="evenodd" clip-rule="evenodd" d="M122.379 61.1073C122.374 59.8392 121.893 58.619 121.032 57.6877C120.172 56.7565 118.993 56.1818 117.729 56.0772C114.867 55.8098 52.3997 55.9597 49.096 56.0772C45.7923 56.1947 44.2413 58.4348 44.1035 60.4339C44.0063 61.8395 43.8948 65.7307 44.5042 65.7307C46.3271 65.7307 121.31 65.9205 122.197 65.9341C122.72 65.9416 122.379 61.6376 122.379 61.1073ZM107.477 63.2473C104.494 63.2473 104.221 58.5923 107.311 58.5923C107.63 58.5578 107.953 58.5894 108.259 58.6852C108.565 58.7809 108.848 58.9387 109.091 59.1488C109.333 59.3588 109.53 59.6165 109.668 59.9059C109.807 60.1953 109.884 60.5101 109.895 60.8307C109.907 61.1513 109.852 61.4708 109.734 61.7693C109.617 62.0678 109.439 62.3389 109.212 62.5656C108.985 62.7924 108.714 62.9699 108.415 63.0872C108.117 63.2045 107.797 63.259 107.477 63.2473ZM115.398 63.2473C115.08 63.2819 114.757 63.2505 114.451 63.155C114.145 63.0595 113.862 62.902 113.619 62.6922C113.376 62.4825 113.18 62.225 113.041 61.9358C112.902 61.6467 112.825 61.3321 112.813 61.0116C112.801 60.6911 112.855 60.3717 112.973 60.0731C113.09 59.7746 113.267 59.5034 113.494 59.2764C113.72 59.0494 113.991 58.8715 114.289 58.7538C114.588 58.6361 114.907 58.5811 115.227 58.5923C118.3 58.59 118.568 63.2473 115.398 63.2473Z" fill="#38A1FF"/>
<path fill-rule="evenodd" clip-rule="evenodd" d="M122.134 83.0703C122.629 77.9167 122.672 72.7296 122.262 67.5686C122.21 66.911 121.194 67.0345 121.246 67.6921C121.591 71.9675 121.698 80.809 120.846 85.1673C119.993 89.5255 116.868 88.9681 113.421 89.0088L54.2387 89.7033C43.6624 89.8268 45.0047 89.176 44.8789 67.7561C44.8789 67.2853 44.0782 67.2748 44.0504 67.7561C43.8839 70.6802 43.7574 82.6424 44.2372 85.6305C45.2058 91.6564 51.2423 90.73 56.1519 90.6772L111.641 90.0407C118.007 89.9707 121.377 90.9499 122.134 83.0703Z" fill="#191919"/>
<path fill-rule="evenodd" clip-rule="evenodd" d="M98.3841 75.5389C98.3329 75.5411 98.2825 75.5533 98.236 75.5748C98.1895 75.5964 98.1477 75.6269 98.1129 75.6647C98.0428 75.7409 98.0058 75.8418 98.0101 75.9453C98.0144 76.0488 98.0596 76.1463 98.1358 76.2165C98.2121 76.2866 98.313 76.3236 98.4165 76.3193C103.606 76.5972 108.861 76.2628 114.014 76.5596C115.847 76.6658 116.716 77.4529 116.801 78.286C117.045 80.7566 112.829 80.4749 111.377 80.5126H98.6025C97.9555 80.5126 97.9999 81.5739 98.6455 81.5671C103.071 81.531 107.493 81.4745 111.912 81.4549C114.021 81.4451 117.923 81.3796 117.717 78.2913C117.55 75.7792 114.58 75.6354 112.714 75.6188C108.187 75.5789 102.693 75.3649 98.3841 75.5389Z" fill="#191919"/>
<path fill-rule="evenodd" clip-rule="evenodd" d="M56.1086 71.3597C55.9911 71.0117 55.488 71.1134 55.3712 71.3966C55.1392 71.9623 55.0827 76.3891 55.0556 77.2124C54.3777 76.6776 53.7066 76.1466 53.0219 75.6412C52.8931 75.5455 51.8024 75.5455 53.0753 76.8011C53.8197 77.5375 54.6485 78.1832 55.5445 78.7249C55.9881 78.8372 57.7289 76.8569 58.1213 76.4908C59.0726 75.6027 58.2719 75.2721 57.9819 75.3308C57.2965 75.7909 56.6668 76.329 56.1056 76.9345C56.1056 75.9138 56.373 72.1235 56.1056 71.3326L56.1086 71.3597Z" fill="#191919"/>
<path fill-rule="evenodd" clip-rule="evenodd" d="M50.085 81.9003C49.4825 81.8755 49.505 79.9419 49.4704 79.4576C49.3552 77.8539 50.3306 78.6456 50.3306 78.6456C50.6086 78.9469 50.5875 80.6658 50.5769 81.0349C53.982 80.7811 57.4024 80.8133 60.8022 81.1313C60.711 80.0617 60.4067 78.6079 61.1652 78.5544C61.9237 78.501 61.7806 79.5698 61.7912 80.4466C61.801 81.2375 61.9832 82.2197 61.4545 82.2107C57.6114 82.1452 53.8799 82.057 50.085 81.9003Z" fill="#191919"/>
<path fill-rule="evenodd" clip-rule="evenodd" d="M75.6029 41.9011C75.3838 41.5855 73.6566 39.3401 73.1602 39.3891C71.7803 39.5149 65.3935 41.5539 66.0564 42.5105C67.0446 46.4763 68.7974 53.6344 69.1191 54.5104C69.2524 54.8742 69.809 54.6866 69.7548 54.3183C69.3714 51.7136 67.6758 45.5679 66.8254 42.4465C68.8552 41.4908 70.9828 40.7584 73.1707 40.2621C73.8065 40.9679 74.4324 41.6624 75.0629 42.4005C76.0466 43.1327 94.1952 37.5896 96.0271 37.0977C99.492 48.1997 99.5477 50.3789 100.977 53.3798C101.157 53.7564 101.65 53.4649 101.602 53.1176C100.292 48.6381 98.4969 40.4059 96.5882 36.471C96.2297 35.7238 75.6029 41.9968 75.6029 41.9011Z" fill="#191919"/>
<path fill-rule="evenodd" clip-rule="evenodd" d="M81.3389 23.284C83.2333 24.96 89.7488 33.0551 91.0459 35.2952C91.2478 35.6432 90.6934 35.9144 90.4742 35.6319C87.8092 32.2047 86.3525 29.6881 81.1521 23.974C73.8826 28.9559 67.3399 35.3916 66.2922 35.0173C65.2444 34.6429 63.8652 34.3974 62.8762 34.087C61.2785 35.4051 59.7979 36.859 58.4509 38.4325C59.1725 39.1857 64.7307 45.5664 65.2602 46.4989C65.4771 46.8793 64.9634 47.3471 64.6832 46.9961C60.2617 41.4492 57.2352 38.8422 57.6645 38.1229C58.3425 36.9878 61.3155 34.0659 62.41 33.5793C62.5651 32.8683 65.7935 34.1141 66.3117 34.3273C66.3132 34.252 80.6158 22.6476 81.3389 23.284Z" fill="#191919"/>
<path fill-rule="evenodd" clip-rule="evenodd" d="M52.1486 38.4862C52.2451 37.6577 53.4472 31.9383 53.982 31.7304L57.0078 30.816C57.5419 29.3675 62.4168 16.4118 62.8869 16.5044C64.7843 16.8667 76.6712 21.7093 77.6933 22.4806C77.9984 22.7066 77.789 23.2203 77.4319 23.09C72.8741 21.4329 67.5539 18.7709 63.1279 17.3224C62.9833 18.087 57.74 31.2837 57.6292 31.396C57.0944 31.9308 55.1699 32.1394 54.3526 32.3533C54.2992 33.2776 53.2296 37.0038 52.9252 38.1473L55.4908 38.8048C55.881 38.9811 55.8275 39.6492 55.3469 39.5957C55.658 39.5957 52.0906 38.9856 52.1486 38.4862Z" fill="#191919"/>
<path fill-rule="evenodd" clip-rule="evenodd" d="M36.4334 34.9166C35.8986 35.0928 34.2061 37.1454 34.295 37.6531C34.6555 39.7813 35.2674 41.8592 36.1178 43.8432C36.3686 44.4172 48.0642 40.7218 49.4381 40.3369C49.4901 40.3274 49.5397 40.3078 49.5841 40.2792C49.6285 40.2506 49.6669 40.2135 49.6969 40.1701C49.727 40.1266 49.7483 40.0777 49.7594 40.0261C49.7706 39.9744 49.7715 39.9211 49.762 39.8691C49.7526 39.8171 49.733 39.7675 49.7044 39.7231C49.6757 39.6787 49.6387 39.6404 49.5952 39.6103C49.5518 39.5802 49.5029 39.559 49.4512 39.5478C49.3996 39.5367 49.3462 39.5358 49.2943 39.5452C45.0259 40.4442 40.8223 41.6269 36.7114 43.0855C36.0515 41.3266 35.4998 39.529 35.0595 37.7028C35.4068 37.2591 37.2514 35.2924 37.198 34.9339C36.1284 29.9467 35.0008 24.7779 33.9048 19.8126C38.7157 18.9893 43.7293 17.7788 48.5779 16.8403C48.8393 19.2567 50.6245 26.3228 51.7845 31.1519C51.8477 31.414 52.3163 31.2325 52.3193 30.9756C52.3404 29.372 49.5617 18.5622 48.9945 16.298C48.7828 15.4528 34.5631 18.7836 33.376 19.1678C32.3878 19.4909 35.9627 33.0658 36.4176 34.9309L36.4334 34.9166Z" fill="#191919"/>
<path fill-rule="evenodd" clip-rule="evenodd" d="M32.4935 49.0164C27.7797 45.6125 19.7968 40.0333 14.6454 37.5882C13.5788 37.0821 7.75552 48.7648 7.54688 50.7805C7.54688 51.9239 17.3932 57.1077 19.5686 57.9694C19.6063 59.0925 19.6379 60.2148 19.6756 61.3372C19.9015 61.872 22.0588 62.9423 22.6795 63.1065C25.2864 63.7965 26.277 64.0526 26.521 63.3257C29.1219 55.4476 32.6268 49.1128 32.4935 49.0164ZM25.871 62.9785C23.9609 62.6811 22.1186 62.0476 20.4296 61.1074C20.4936 60.6261 20.5094 57.5416 19.943 57.2478C15.8167 55.1086 12.2938 53.1698 8.26321 50.7323C10.3376 45.3444 12.0053 43.1208 14.7094 38.5027C20.5523 42.0519 26.0419 45.2268 31.6574 49.3049C30.2541 51.7981 26.5496 60.3097 25.871 62.9785Z" fill="#191919"/>
<path fill-rule="evenodd" clip-rule="evenodd" d="M24.6203 71.3112C17.9978 71.1011 10.8457 70.8819 4.21723 71.0385C2.87571 71.0702 5.13016 84.3039 5.58587 85.668C5.78548 86.266 16.196 86.0318 18.3556 85.7056C18.6553 86.5165 19.142 87.2453 19.7762 87.8328C20.1611 88.1273 26.3828 88.1341 26.5109 87.3251C25.1242 77.9925 25.4383 71.3368 24.6203 71.3112ZM20.3117 87.1293C20.0503 86.776 18.8369 84.8952 18.5107 84.8786C14.4056 85.0014 10.3486 85.039 6.24872 85.1083C5.3457 80.7029 4.77216 76.2364 4.53284 71.7458L24.1171 72.0471C24.4937 76.8581 24.9351 82.0215 25.598 86.7677L20.3117 87.1293Z" fill="#191919"/>
<path fill-rule="evenodd" clip-rule="evenodd" d="M37.086 103.928C33.6211 99.9052 28.4765 92.9852 28.0471 93.1788C22.1896 95.7523 16.4983 98.6888 11.0066 101.971C9.57542 102.844 16.7064 112.392 18.1955 113.731C19.1559 114.593 27.4807 108.583 28.9556 107.675C29.7612 108.366 30.7026 108.881 31.7192 109.187C32.1862 109.322 37.6208 104.549 37.086 103.928ZM31.8284 108.279C30.0749 107.691 29.061 106.586 28.6211 106.867C25.3151 108.986 22.2442 111.074 18.3959 113.229C15.7486 109.844 13.4569 106.195 11.5572 102.34C17.0355 99.1331 22.4347 96.8237 28.0306 94.1565C29.2019 95.8513 34.6591 102.8 36.2733 104.12C34.7871 105.579 33.3816 106.884 31.8284 108.279Z" fill="#191919"/>
<path fill-rule="evenodd" clip-rule="evenodd" d="M60.2416 118.242C58.9137 117.235 48.7924 113.233 46.1892 112.689C45.4299 112.53 35.9376 128.984 36.498 129.43C40.438 132.342 44.892 134.483 49.6262 135.743C50.6958 136.017 55.5768 125.079 56.2216 123.684C56.8957 123.684 57.7281 123.518 58.406 123.513C59.114 123.352 60.8073 118.672 60.2416 118.242ZM58.2079 122.837C57.6204 122.875 55.686 122.747 55.509 123.126C53.6726 127.047 51.7142 130.922 49.7972 134.805C44.4492 133.202 41.9929 131.951 37.2625 129.091C37.2625 129.091 43.6764 117.069 46.3496 113.483C49.1178 114.429 57.2106 117.759 59.6481 118.694C59.1615 120.076 58.6756 121.45 58.2101 122.834L58.2079 122.837Z" fill="#191919"/>
<path fill-rule="evenodd" clip-rule="evenodd" d="M93.4022 126.222C93.2049 124.769 93.012 122.711 92.8147 121.262C92.4561 120.38 86.7368 121.345 79.12 121.342C78.2327 121.342 79.5961 138.084 79.6864 139.848C80.8735 141.053 92.0825 140.462 92.0712 139.008L91.092 128.099C92.087 127.436 93.0497 126.906 93.4022 126.222ZM90.3719 127.997C90.6461 131.613 90.9205 135.226 91.1952 138.837C87.611 139.466 83.9678 139.691 80.3335 139.51C80.2371 133.818 79.5102 128.04 79.7023 122.08C83.8134 122.048 87.8591 121.957 92.0931 121.663C92.1729 122.203 92.7024 125.993 92.5096 126.196C92.5096 126.369 91.0084 126.959 90.3719 127.997Z" fill="#191919"/>
<path fill-rule="evenodd" clip-rule="evenodd" d="M119.782 114.393C120.316 113.426 120.586 112.992 120.557 112.602C120.522 112.132 117.713 108.197 117.28 108.438C115.356 109.507 110.754 113.981 109.597 115.574C109.554 116.579 116.161 128.034 116.941 128.295C117.318 129.696 124.145 122.635 124.115 122.218C124.073 121.699 120.247 115.212 119.782 114.393ZM117.344 127.606C114.738 123.798 112.415 119.803 110.395 115.654C112.796 113.361 114.768 111.549 117.296 109.433L119.67 112.741L119.033 114.247C118.873 114.632 122.775 120.843 123.39 122.143C121.621 124.219 119.588 126.056 117.344 127.608V127.606Z" fill="#191919"/>
<path fill-rule="evenodd" clip-rule="evenodd" d="M142.301 97.9892C141.65 97.3037 137.014 95.0606 136.159 94.7555C136.223 94.4136 136.437 92.7971 136.245 92.6178C135.095 91.9589 133.898 91.3871 132.664 90.9072C132.044 90.9072 128.054 99.275 128.387 99.5559C129.593 100.57 137.633 105.834 139.136 106.41C139.624 106.594 142.67 98.3786 142.301 97.9892ZM138.982 105.312C138.158 104.778 129.9 99.4595 129.173 99.2109C129.248 99.1417 132.38 92.6261 132.878 91.7283C133.713 92.2887 134.609 92.7513 135.55 93.1067C135.448 93.7504 135.436 94.4051 135.512 95.0523C135.512 95.2715 140.521 97.8318 141.489 98.2009C140.649 100.561 139.81 102.961 138.982 105.312Z" fill="#191919"/>
<path fill-rule="evenodd" clip-rule="evenodd" d="M146.134 76.0739C146.134 75.5391 142.211 74.4703 141.615 74.2564C141.614 73.7782 141.544 73.3027 141.406 72.8448C141.197 72.423 137.991 71.2411 137.723 71.4016C137.098 71.733 135.754 78.5943 136.334 78.9121C137.32 79.4522 144.071 82.3447 145.024 82.1187C145.564 81.9922 146.225 76.2397 146.134 76.0739ZM144.659 81.2103C142.056 80.3124 139.469 79.2699 136.887 78.3984L138.058 72.2091L140.73 73.235C140.778 73.5717 140.858 74.7264 141.163 74.8386L145.327 76.3624C145.08 77.8388 144.659 80.9376 144.659 81.2103Z" fill="#191919"/>
<path fill-rule="evenodd" clip-rule="evenodd" d="M145.214 53.9336C145.012 53.734 140.703 53.8583 139.692 53.8267L138.33 52.5545C137.843 52.5545 135.374 52.437 135.149 52.7307C134.923 53.0245 136.555 59.1491 136.918 59.6477C137.103 59.9008 145.893 59.8986 146.043 59.6477C145.965 57.7195 145.687 55.8047 145.214 53.9336ZM137.405 58.9683C136.891 57.0601 136.386 55.1609 135.887 53.2708C136.555 53.2708 137.491 53.3725 138.132 53.313C138.494 53.7595 138.912 54.1569 139.377 54.4948C141.118 54.6378 142.865 54.6788 144.61 54.6176C144.783 56.1315 145.065 57.6308 145.455 59.1039C142.836 59.0971 140.029 58.9683 137.405 58.9683Z" fill="#191919"/>
<path fill-rule="evenodd" clip-rule="evenodd" d="M134.123 29.0356C133.831 28.7456 129.344 30.5964 128.775 30.7997C128.342 30.4395 127.866 30.1342 127.358 29.8906C127.057 29.8906 123.781 31.1635 124.097 31.7458C124.926 33.2651 127.267 36.9522 128.668 38.0904C129.12 38.4594 136.257 35.4171 136.761 34.9531C137.35 34.4115 134.63 29.5388 134.123 29.0356ZM128.996 37.4222C127.51 35.5836 126.323 33.6809 124.917 31.7616L127.243 30.741C127.494 30.8961 128.494 31.617 128.724 31.5582C130.462 31.1134 132.156 30.5105 133.785 29.7572C134.502 31.318 135.389 32.8787 136.083 34.4394C135.022 34.9727 128.996 37.3469 128.996 37.4222Z" fill="#191919"/>
<path fill-rule="evenodd" clip-rule="evenodd" d="M1.72139 46.8835C1.58204 47.2601 2.13868 47.5674 2.3044 47.1773C6.26644 37.8446 10.9765 31.6997 18.0516 24.7563C18.3025 24.51 17.9341 24.0558 17.6502 24.2803C17.6502 23.8773 6.80953 33.051 1.72139 46.8835Z" fill="#38A1FF"/>
<path fill-rule="evenodd" clip-rule="evenodd" d="M63.6304 53.2501C62.133 51.6796 59.7595 49.3695 57.8953 48.3217C57.5465 48.1266 57.258 48.6381 57.5262 48.8942C59.3339 50.6161 61.2735 51.9621 63.128 53.8332C63.4768 54.1849 63.9671 53.6064 63.6304 53.2501Z" fill="#38A1FF"/>
<path fill-rule="evenodd" clip-rule="evenodd" d="M79.8676 17.2762C76.8856 13.9619 70.1923 11.4009 66.5051 10.8623C66.4095 10.8482 66.312 10.8726 66.2343 10.9302C66.1567 10.9878 66.105 11.074 66.0909 11.1697C66.0767 11.2654 66.1011 11.3628 66.1587 11.4405C66.2164 11.5181 66.3025 11.5698 66.3982 11.5839C73.0794 12.6679 75.6533 15.0255 79.4458 17.7839C79.7471 18.0023 80.0552 17.4901 79.8465 17.2498L79.8676 17.2762Z" fill="#38A1FF"/>
<path fill-rule="evenodd" clip-rule="evenodd" d="M32.4348 41.4203C31.4993 41.3887 30.1615 43.4156 29.8474 44.0928C29.6787 44.4574 30.2911 44.7451 30.4892 44.3979C31.2575 43.0503 32.6269 42.1637 32.7444 41.8798C32.7615 41.8294 32.7667 41.7758 32.7595 41.7231C32.7523 41.6704 32.7329 41.6201 32.7028 41.5762C32.6728 41.5324 32.6329 41.4961 32.5864 41.4703C32.5398 41.4446 32.4879 41.43 32.4348 41.4278V41.4203Z" fill="#38A1FF"/>
<path fill-rule="evenodd" clip-rule="evenodd" d="M29.1854 25.7541C25.2376 26.7371 21.0572 31.0305 19.092 34.515C18.8569 34.9316 19.5311 35.2156 19.7699 34.8088C21.9971 31.0268 25.3857 28.0648 29.4317 26.3635C29.736 26.2354 29.5115 25.6727 29.1854 25.7541Z" fill="#38A1FF"/>
<path fill-rule="evenodd" clip-rule="evenodd" d="M26.667 33.9589C26.9826 33.8678 27.2018 34.3356 26.9683 34.493C25.2439 35.5428 23.8683 37.079 23.0145 38.9085C22.8097 39.3348 22.186 38.9559 22.3788 38.5319C23.0567 37.0118 24.9285 34.4591 26.655 33.9514L26.667 33.9589Z" fill="#38A1FF"/>
<path fill-rule="evenodd" clip-rule="evenodd" d="M15.2562 58.4713C13.6579 60.3092 12.8007 64.1266 12.7871 66.4948C12.7871 66.9008 13.4718 66.9467 13.5034 66.5377C13.7844 62.935 14.6936 60.7318 15.9296 58.9262C16.185 58.5519 15.5658 58.1142 15.2562 58.4713Z" fill="#38A1FF"/>
<path fill-rule="evenodd" clip-rule="evenodd" d="M10.4229 58.9697C9.11908 60.7873 8.52552 65.6299 8.5308 67.87C8.54516 67.9582 8.59045 68.0385 8.65855 68.0964C8.72665 68.1543 8.81313 68.1861 8.90252 68.1861C8.99191 68.1861 9.07839 68.1543 9.14649 68.0964C9.2146 68.0385 9.25988 67.9582 9.27424 67.87C9.36071 64.9114 9.97284 61.9918 11.082 59.2477C11.2327 58.871 10.676 58.6067 10.4244 58.9539L10.4229 58.9697Z" fill="#38A1FF"/>
<path fill-rule="evenodd" clip-rule="evenodd" d="M21.7231 124.715C14.3361 119.46 10.5458 113.693 7.00252 105.658C6.97255 105.579 6.91255 105.515 6.8357 105.481C6.75885 105.446 6.67146 105.444 6.59275 105.474C6.51404 105.504 6.45046 105.564 6.41599 105.641C6.38153 105.718 6.379 105.805 6.40896 105.884C8.67546 113.366 14.8558 120.76 21.2953 125.233C21.6485 125.478 22.0809 124.966 21.7231 124.699V124.715Z" fill="#38A1FF"/>
<path fill-rule="evenodd" clip-rule="evenodd" d="M144.129 85.0699C144.118 84.9958 144.082 84.928 144.025 84.8789C143.969 84.8298 143.896 84.8027 143.822 84.8027C143.747 84.8027 143.674 84.8298 143.618 84.8789C143.561 84.928 143.525 84.9958 143.514 85.0699C143.238 87.0284 143.304 88.0279 142.285 89.8432C142.095 90.1814 142.69 90.5211 142.888 90.1852C143.65 88.852 144.487 86.6141 144.129 85.0699Z" fill="#38A1FF"/>
<path fill-rule="evenodd" clip-rule="evenodd" d="M140.094 84.3635C139.597 85.2455 138.362 89.9073 138.074 90.9325C137.952 91.3603 138.607 91.4665 138.736 91.0613C139.06 90.0444 140.613 85.5626 140.687 84.5608C140.702 84.4856 140.689 84.4075 140.651 84.3412C140.612 84.2749 140.551 84.2249 140.478 84.2007C140.405 84.1765 140.326 84.1796 140.255 84.2096C140.185 84.2396 140.128 84.2943 140.094 84.3635Z" fill="#38A1FF"/>
<path fill-rule="evenodd" clip-rule="evenodd" d="M123.154 114.603C123.102 114.662 123.072 114.738 123.07 114.817C123.067 114.896 123.092 114.973 123.139 115.036C123.187 115.098 123.255 115.143 123.332 115.161C123.409 115.18 123.489 115.171 123.56 115.137C125.415 113.865 128.74 110.61 129.408 108.358C129.509 108.016 129.05 107.674 128.873 108.021C128.61 108.128 127.399 111.473 123.154 114.603Z" fill="#38A1FF"/>
<path fill-rule="evenodd" clip-rule="evenodd" d="M126.506 105.041C126.147 106.472 123.643 108.726 122.513 109.494C122.16 109.733 121.854 109.193 122.177 108.959C124.766 107.104 125.19 105.533 125.966 104.757C126.011 104.577 126.581 104.626 126.506 105.041Z" fill="#38A1FF"/>
<path fill-rule="evenodd" clip-rule="evenodd" d="M103.435 132.167C103.347 132.196 103.274 132.257 103.231 132.338C103.188 132.42 103.178 132.514 103.204 132.603C103.23 132.691 103.289 132.766 103.369 132.811C103.449 132.856 103.544 132.869 103.633 132.845C105.285 132.359 109.977 130.606 111.271 129.291C111.497 129.065 111.228 128.602 110.939 128.757C110.748 128.659 107.022 131.078 103.435 132.167Z" fill="#38A1FF"/>
<path fill-rule="evenodd" clip-rule="evenodd" d="M100.731 128.159C98.3534 129.113 97.5881 130.062 94.6211 129.967C94.5384 129.973 94.4606 130.008 94.4022 130.067C94.3437 130.126 94.3087 130.204 94.3034 130.287C94.2982 130.37 94.3231 130.452 94.3737 130.517C94.4242 130.583 94.4969 130.628 94.5782 130.645C96.3439 130.772 98.1113 130.421 99.6942 129.629C101.984 128.473 101.063 128.027 100.731 128.159Z" fill="#38A1FF"/>
<path fill-rule="evenodd" clip-rule="evenodd" d="M106.076 119.942C102.93 121.208 99.5875 121.919 96.1982 122.043C95.7975 122.053 95.8449 122.668 96.2464 122.663C98.8827 122.627 104.005 121.894 106.354 120.525C106.681 120.334 106.386 119.862 106.076 119.991V119.942Z" fill="#38A1FF"/>
<path fill-rule="evenodd" clip-rule="evenodd" d="M74.7526 125.116C71.3299 124.918 70.1089 125.321 66.5317 124.095C66.1257 123.956 65.9547 124.586 66.3555 124.736C68.7508 125.633 72.3061 126.34 74.8226 125.699C74.8867 125.676 74.9411 125.632 74.9769 125.574C75.0127 125.516 75.0277 125.447 75.0196 125.379C75.0114 125.312 74.9806 125.249 74.9321 125.201C74.8836 125.153 74.8203 125.123 74.7526 125.116Z" fill="#38A1FF"/>
<path fill-rule="evenodd" clip-rule="evenodd" d="M73.1129 131.964C68.3441 131.726 65.5895 131.829 60.9149 130.013C60.5142 129.858 60.1986 130.451 60.6046 130.616C64.1192 132.057 69.4491 133.277 73.2251 132.583C73.6093 132.514 73.4443 131.98 73.1129 131.964Z" fill="#38A1FF"/>
<path fill-rule="evenodd" clip-rule="evenodd" d="M31.1197 120.876C27.9297 119.412 25.9517 118.671 23.7967 115.679C23.524 115.302 22.9568 115.728 23.2197 116.106C24.8678 118.487 27.9862 121.164 30.954 121.484C31.0283 121.489 31.1022 121.469 31.1631 121.426C31.2239 121.383 31.2679 121.32 31.2875 121.248C31.3071 121.176 31.3011 121.1 31.2705 121.032C31.2398 120.964 31.1865 120.909 31.1197 120.876Z" fill="#38A1FF"/>
<path fill-rule="evenodd" clip-rule="evenodd" d="M37.8661 117.023C37.9143 117.023 38.8453 118.354 35.5356 116.921C33.4821 116.029 31.5851 114.813 29.9172 113.319C29.5812 113.018 30.1002 112.558 30.452 112.848C33.1727 115.095 34.9714 115.521 37.8925 117.023H37.8661Z" fill="#38A1FF"/>
<path fill-rule="evenodd" clip-rule="evenodd" d="M41.5004 112.31C40.3622 111.445 39.1812 110.62 38.0204 109.782C37.6573 109.52 37.3056 110.123 37.6679 110.385C38.8158 111.203 39.9397 112.047 41.0944 112.838C41.3957 113.047 41.8107 112.55 41.5004 112.304V112.31Z" fill="#38A1FF"/>
<path fill-rule="evenodd" clip-rule="evenodd" d="M12.4546 95.692C11.2446 93.7449 10.7513 91.4368 11.0596 89.1652C11.1041 88.8134 10.5768 88.7532 10.457 89.0801C9.68194 91.1658 10.6913 94.2405 11.8467 96.0287C12.0863 96.4023 12.6957 96.0754 12.4546 95.692Z" fill="#38A1FF"/>
<path fill-rule="evenodd" clip-rule="evenodd" d="M19.1095 94.4877C18.1744 93.0287 17.4694 91.4346 17.0192 89.7612C16.9258 89.4094 16.4844 89.7612 16.4528 90.0662C16.4151 90.9317 18.0542 94.3446 18.4948 94.8116C18.8029 95.1416 19.3708 94.8139 19.1095 94.4877Z" fill="#38A1FF"/>
<path fill-rule="evenodd" clip-rule="evenodd" d="M149.96 61.406C150.283 67.4429 149.663 73.4932 148.122 79.3391C148.102 79.4205 148.114 79.5066 148.156 79.5791C148.199 79.6515 148.268 79.7046 148.348 79.7269C148.429 79.7492 148.516 79.739 148.589 79.6985C148.663 79.658 148.717 79.5904 148.742 79.5101C150.127 74.5508 151.355 66.5431 150.618 61.3367C150.618 60.9691 149.94 61.0143 149.96 61.406Z" fill="#38A1FF"/>
<path fill-rule="evenodd" clip-rule="evenodd" d="M124.864 19.4505C124.555 19.1492 124.011 19.5612 124.33 19.8836C126.641 22.2566 128.721 24.8446 130.54 27.6126C130.742 27.9139 131.257 27.6126 131.108 27.2759C131.294 27.2759 129.085 23.6197 124.864 19.4505Z" fill="#38A1FF"/>
<path fill-rule="evenodd" clip-rule="evenodd" d="M125.306 25.9615C125.517 26.2628 125.07 26.5498 124.825 26.3382C123.219 24.9356 119.145 20.1202 117.518 18.2461C117.267 17.9569 117.677 17.5305 117.945 17.8183C119.671 19.6637 124.049 24.1538 125.306 25.9615Z" fill="#38A1FF"/>
<path fill-rule="evenodd" clip-rule="evenodd" d="M138.442 39.9454C138.417 39.9103 138.385 39.8804 138.349 39.8574C138.313 39.8344 138.272 39.8188 138.23 39.8115C138.188 39.8041 138.144 39.8052 138.103 39.8146C138.061 39.824 138.021 39.8416 137.986 39.8663C137.951 39.891 137.921 39.9224 137.898 39.9587C137.875 39.995 137.859 40.0355 137.852 40.0778C137.845 40.1201 137.846 40.1634 137.855 40.2053C137.865 40.2472 137.882 40.2869 137.907 40.322C140.292 44.0129 140.776 46.4014 141.499 49.3662C141.589 49.7353 142.102 49.5854 142.114 49.2381C142.236 46.4835 138.683 39.9454 138.442 39.9454Z" fill="#38A1FF"/>
<path fill-rule="evenodd" clip-rule="evenodd" d="M135.074 40.03C134.919 39.624 134.26 39.804 134.411 40.2228C134.697 41.0152 136.076 45.1317 136.52 45.7493C136.685 45.9798 137.133 45.9211 137.098 45.5836C136.984 44.5155 135.522 41.2013 135.074 40.03Z" fill="#38A1FF"/>
<path fill-rule="evenodd" clip-rule="evenodd" d="M144.942 64.4526C144.894 64.143 144.32 64.0007 144.348 64.3675C144.435 67.1082 144.238 69.8504 143.761 72.5507C143.686 72.9838 144.338 72.9785 144.434 72.5507C144.947 69.8803 145.117 67.1555 144.942 64.4421V64.4526Z" fill="#38A1FF"/>
<path fill-rule="evenodd" clip-rule="evenodd" d="M59.1348 17.1435C57.6171 16.1124 54.0791 16.4837 52.3941 17.1006C51.9241 17.2724 52.089 18.0346 52.5711 17.8652C55.9607 16.6705 57.654 17.7424 58.9533 17.7635C59.026 17.7633 59.0967 17.7397 59.1548 17.6961C59.213 17.6524 59.2555 17.5912 59.2759 17.5214C59.2963 17.4516 59.2936 17.3771 59.2682 17.309C59.2428 17.2409 59.196 17.1829 59.1348 17.1435Z" fill="#38A1FF"/>
<path fill-rule="evenodd" clip-rule="evenodd" d="M106.088 39.0415C106.03 38.6302 105.468 38.7854 105.425 39.1274C104.941 42.9764 105.116 47.0093 104.543 51.0738C104.486 51.4752 105.183 51.5762 105.249 51.1755C105.773 47.9666 106.527 42.1562 106.088 39.0415Z" fill="#38A1FF"/>
<path fill-rule="evenodd" clip-rule="evenodd" d="M83.2251 12.5354C82.8891 12.2341 82.3965 12.7018 82.7174 13.0325C89.6231 20.1356 91.7819 25.6222 93.9407 31.853C94.0838 32.265 94.8845 32.0624 94.7692 31.6391C92.6142 23.7022 87.5886 16.4289 83.2251 12.5354Z" fill="#38A1FF"/>
</svg>
