<?xml version="1.0" encoding="UTF-8"?>
<!DOCTYPE svg PUBLIC "-//W3C//DTD SVG 1.1//EN" "http://www.w3.org/Graphics/SVG/1.1/DTD/svg11.dtd">
<svg xmlns="http://www.w3.org/2000/svg" version="1.1" width="512px" height="512px" style="shape-rendering:geometricPrecision; text-rendering:geometricPrecision; image-rendering:optimizeQuality; fill-rule:evenodd; clip-rule:evenodd" xmlns:xlink="http://www.w3.org/1999/xlink">
<g><path style="opacity:0.842" fill="#fefffe" d="M 227.5,202.5 C 229.124,202.36 230.29,203.027 231,204.5C 235.019,215.409 238.852,226.409 242.5,237.5C 249.804,237.983 256.97,237.316 264,235.5C 267.686,236.722 271.519,237.389 275.5,237.5C 280.188,237.713 284.688,237.046 289,235.5C 290.6,236.866 292.433,237.866 294.5,238.5C 282.524,245.825 270.19,252.658 257.5,259C 258.925,260.714 258.592,262.047 256.5,263C 264.931,274.702 271.597,287.202 276.5,300.5C 269.862,296.547 262.862,293.047 255.5,290C 249.527,283.356 242.527,278.19 234.5,274.5C 232.543,275.954 230.71,277.62 229,279.5C 221.333,289.5 213.667,299.5 206,309.5C 204.455,310.821 203.289,310.488 202.5,308.5C 203.178,305.239 204.178,301.906 205.5,298.5C 204.689,297.784 204.022,296.95 203.5,296C 204.787,293.929 205.953,291.762 207,289.5C 208.828,279.204 210.328,268.871 211.5,258.5C 207.524,258.007 203.69,257.007 200,255.5C 199.586,255.957 199.086,256.291 198.5,256.5C 189.473,252.908 180.139,250.242 170.5,248.5C 170.36,246.876 171.027,245.71 172.5,245C 187.657,242.105 202.657,239.772 217.5,238C 221.529,226.388 224.862,214.554 227.5,202.5 Z M 234.5,227.5 C 235.478,227.811 236.145,228.478 236.5,229.5C 232.51,231.05 231.843,230.383 234.5,227.5 Z M 214.5,269.5 C 214.461,268.244 214.961,267.244 216,266.5C 216.585,267.998 216.085,268.998 214.5,269.5 Z"/></g>
<g><path style="opacity:0.798" fill="#fefffe" d="M 302.5,278.5 C 303.496,278.414 304.329,278.748 305,279.5C 308.08,286.888 310.914,294.388 313.5,302C 324.165,302.164 334.832,301.998 345.5,301.5C 346.902,301.865 347.902,302.699 348.5,304C 341.348,309.08 333.682,313.414 325.5,317C 324.833,318.333 324.167,319.667 323.5,321C 328.574,328.987 333.24,337.153 337.5,345.5C 329.305,344.393 322.305,340.56 316.5,334C 313.368,332.365 310.368,330.532 307.5,328.5C 300.124,336.541 293.124,344.874 286.5,353.5C 285.815,350.111 285.482,346.778 285.5,343.5C 286.333,341.833 287.167,340.167 288,338.5C 288.795,331.892 289.962,325.392 291.5,319C 281.796,315.99 272.13,312.823 262.5,309.5C 262.709,308.914 263.043,308.414 263.5,308C 274.333,305.938 284.999,304.271 295.5,303C 298.064,294.911 300.398,286.744 302.5,278.5 Z"/></g>
</svg>
